# xmcd CD database file
#
# Track frame offsets:
#	150
#	22187
#	45452
#
# Disc length: 898 seconds
#
# Revision: 0
# Processed by: cddbd v1.5PL3 Copyright (c) Steve Scherf et al.
# Submitted via: CDex 1.40Release
#
DISCID=1e038003
DTITLE=円谷優子 - Mystery of Sound
DYEAR=1996
DGENRE=Pop
TTITLE0=Mystery of Sound (Original Mix)
TTITLE1=Mystery of Sound (Dance Floor Remix)
TTITLE2=Mystery of Sound (TV Mix)
EXTD=YEAR: 1996
EXTT0=
EXTT1=
EXTT2=
PLAYORDER=
